<?xml version="1.0" encoding="iso-8859-1"?>
<!-- Uploaded to: SVG Repo, www.svgrepo.com, Generator: SVG Repo Mixer Tools -->
<svg height="800px" width="800px" version="1.1" id="Layer_1" xmlns="http://www.w3.org/2000/svg" xmlns:xlink="http://www.w3.org/1999/xlink" 
	 viewBox="0 0 512 512" xml:space="preserve">
<g>
	<circle style="fill:#FFE9BF;" cx="399.07" cy="156.994" r="101.346"/>
	<circle style="fill:#FFE9BF;" cx="112.93" cy="156.994" r="101.346"/>
</g>
<path style="fill:#FC7576;" d="M307.987,378.646H204.013l-27.876,15.252c8.874,35.859,41.261,62.444,79.863,62.444
	s70.987-26.586,79.863-62.444L307.987,378.646z"/>
<path style="fill:#F9545B;" d="M204.013,390.613c22.375,0,31.092,18.766,51.987,18.766c20.895,0,29.611-18.766,51.987-18.766
	c24.205,0,43.965,9.145,59.413,7.196c-39.833,0-54.332-78.154-111.399-40.417c-57.067-37.737-71.568,40.417-111.399,40.417
	C160.049,399.758,179.808,390.613,204.013,390.613z"/>
<g>
	<path style="fill:#000030;" d="M374.062,382.423c-2.057,2.057-4.335,3.249-7.237,3.772c-10.574-0.341-19.876-9.938-30.613-21.046
		c-17.637-18.247-41.463-42.891-80.211-21.312c-38.752-21.579-62.575,3.067-80.211,21.312
		c-10.738,11.109-20.04,20.707-30.616,21.046c-2.902-0.522-5.179-1.714-7.235-3.772c-4.523-4.522-11.858-4.522-16.382,0
		c-4.523,4.523-4.523,11.858,0.001,16.383c6.676,6.676,14.082,9.627,21.839,10.525c0.013,0.002,0.025,0.003,0.038,0.005
		c9.741,1.118,20.034-1.002,30.136-3.089c9.64-1.99,19.608-4.047,30.443-4.047c8.087,0,13.716,3.482,20.845,7.892
		c8.241,5.096,17.581,10.874,31.142,10.874c13.561,0,22.901-5.777,31.142-10.874c7.129-4.41,12.759-7.892,20.845-7.892
		c10.835,0,20.803,2.057,30.442,4.047c18.164,3.753,36.946,7.63,52.016-7.44c4.523-4.523,4.523-11.857,0-16.383
		C385.921,377.901,378.588,377.899,374.062,382.423z M274.954,390.386c-6.692,4.14-11.979,7.41-18.954,7.41
		c-6.976,0-12.262-3.269-18.956-7.41c-8.179-5.059-18.359-11.356-33.031-11.356c-3.38,0-6.655,0.161-9.833,0.431
		c19.102-19.617,30.84-28.666,55.43-12.407c3.875,2.563,8.906,2.563,12.778,0c24.592-16.259,36.329-7.21,55.43,12.407
		c-3.179-0.27-6.453-0.431-9.832-0.431C293.315,379.031,283.135,385.327,274.954,390.386z"/>
	<path style="fill:#000030;" d="M399.073,44.074c-62.268,0-112.926,50.658-112.926,112.926s50.658,112.927,112.926,112.927
		S512,219.268,512,157S461.341,44.074,399.073,44.074z M399.073,246.76c-49.494,0-89.759-40.266-89.759-89.76
		s40.266-89.759,89.759-89.759c49.495,0,89.76,40.266,89.76,89.759C488.833,206.495,448.566,246.76,399.073,246.76z"/>
	<path style="fill:#000030;" d="M399.073,183.569c-6.397,0-11.584,5.187-11.584,11.584v8.346c0,6.397,5.187,11.584,11.584,11.584
		c6.398,0,11.584-5.187,11.584-11.584v-8.346C410.656,188.755,405.469,183.569,399.073,183.569z"/>
	<path style="fill:#000030;" d="M446.874,160.352l-7.937-2.579c-6.088-1.982-12.62,1.354-14.595,7.439
		c-1.976,6.085,1.354,12.619,7.439,14.595l7.938,2.579c1.188,0.387,2.394,0.57,3.581,0.57c4.884,0,9.426-3.114,11.015-8.009
		C456.289,168.862,452.959,162.328,446.874,160.352z"/>
	<path style="fill:#000030;" d="M430.871,132.943l4.905-6.752c3.76-5.176,2.612-12.42-2.565-16.18
		c-5.174-3.758-12.419-2.612-16.18,2.565l-4.905,6.752c-3.76,5.176-2.612,12.42,2.565,16.18c2.055,1.493,4.438,2.212,6.798,2.212
		C425.071,137.72,428.604,136.062,430.871,132.943z"/>
	<path style="fill:#000030;" d="M386.019,119.327l-4.905-6.752c-3.761-5.179-11.006-6.324-16.18-2.565
		c-5.177,3.76-6.325,11.005-2.565,16.18l4.905,6.752c2.267,3.121,5.799,4.777,9.382,4.777c2.361,0,4.744-0.719,6.798-2.212
		C388.631,131.746,389.779,124.502,386.019,119.327z"/>
	<path style="fill:#000030;" d="M359.21,157.774l-7.938,2.579c-6.085,1.976-9.415,8.511-7.439,14.595
		c1.589,4.896,6.131,8.009,11.015,8.009c1.185,0,2.391-0.183,3.581-0.57l7.938-2.579c6.085-1.976,9.415-8.511,7.439-14.595
		C371.829,159.128,365.295,155.792,359.21,157.774z"/>
	<path style="fill:#000030;" d="M225.855,157c0-62.268-50.659-112.926-112.927-112.926S0,94.732,0,157
		s50.659,112.927,112.927,112.927S225.855,219.268,225.855,157z M112.927,246.76c-49.494,0-89.76-40.265-89.76-89.76
		c0-49.494,40.266-89.759,89.76-89.759s89.76,40.266,89.76,89.759C202.687,206.495,162.421,246.76,112.927,246.76z"/>
	<path style="fill:#000030;" d="M112.927,183.569c-6.398,0-11.584,5.187-11.584,11.584v8.346c0,6.397,5.186,11.584,11.584,11.584
		c6.398,0,11.584-5.187,11.584-11.584v-8.346C124.511,188.755,119.325,183.569,112.927,183.569z"/>
	<path style="fill:#000030;" d="M160.729,160.352l-7.937-2.579c-6.087-1.978-12.619,1.354-14.595,7.439
		c-1.976,6.084,1.354,12.619,7.438,14.595l7.937,2.579c1.19,0.387,2.394,0.57,3.581,0.57c4.883,0,9.425-3.114,11.015-8.009
		C170.143,168.863,166.812,162.328,160.729,160.352z"/>
	<path style="fill:#000030;" d="M144.723,132.944l4.906-6.752c3.761-5.176,2.613-12.42-2.562-16.18
		c-5.174-3.76-12.419-2.613-16.18,2.562l-4.906,6.752c-3.761,5.176-2.613,12.42,2.562,16.18c2.056,1.494,4.439,2.214,6.8,2.214
		C138.925,137.72,142.456,136.063,144.723,132.944z"/>
	<path style="fill:#000030;" d="M99.872,119.326l-4.906-6.752c-3.759-5.176-11.005-6.324-16.18-2.562
		c-5.176,3.76-6.322,11.005-2.562,16.18l4.906,6.752c2.267,3.119,5.798,4.776,9.38,4.776c2.361,0,4.744-0.719,6.8-2.214
		C102.487,131.745,103.634,124.501,99.872,119.326z"/>
	<path style="fill:#000030;" d="M73.063,157.774l-7.937,2.579c-6.084,1.976-9.414,8.512-7.438,14.595
		c1.59,4.896,6.131,8.009,11.015,8.009c1.185,0,2.392-0.184,3.581-0.57l7.937-2.579c6.084-1.976,9.414-8.512,7.438-14.595
		C85.682,159.128,79.147,155.797,73.063,157.774z"/>
	<path style="fill:#000030;" d="M208.295,266.691c-2.449,5.911,0.359,12.686,6.269,15.134l14.392,5.961
		c1.45,0.601,2.952,0.886,4.428,0.886c4.545,0,8.858-2.693,10.707-7.154c2.449-5.91-0.358-12.686-6.269-15.134l-14.392-5.961
		C217.519,257.976,210.744,260.779,208.295,266.691z"/>
	<path style="fill:#000030;" d="M278.615,288.672c1.477,0,2.978-0.285,4.428-0.885l14.393-5.961
		c5.91-2.449,8.717-9.225,6.269-15.135c-2.449-5.91-9.224-8.716-15.135-6.269l-14.393,5.961c-5.911,2.449-8.717,9.225-6.269,15.135
		C269.757,285.979,274.071,288.672,278.615,288.672z"/>
	<path style="fill:#000030;" d="M329.569,411.792c-5.251-3.65-12.472-2.356-16.125,2.896
		c-13.097,18.829-34.572,30.071-57.445,30.071s-44.348-11.242-57.445-30.071c-3.654-5.252-10.87-6.547-16.123-2.896
		c-5.252,3.653-6.548,10.872-2.896,16.125c17.425,25.053,46.01,40.01,76.464,40.01c30.455,0,59.039-14.957,76.465-40.01
		C336.118,422.664,334.821,415.446,329.569,411.792z"/>
</g>
</svg>